<?xml version="1.0" encoding="utf-8"?>
<svg viewBox="780.033 99.289 119.598 92.879" xmlns="http://www.w3.org/2000/svg">
  <g transform="matrix(1, 0, 0, 1, 607.027344, -80.233856)">
    <path class="st0" d="M255.46,261.86c1.81,3.63,3.86,7.01,6.14,10.26c0.29,0.41,0.57,0.28,0.9,0.18c5.75-1.86,11.31-4.18,16.64-7.05 c4.34-2.34,8.48-4.99,12.43-7.92c0.27-0.2,0.58-0.56,0.59-0.85c0.18-4.02,0.36-8.04,0.43-12.06c0.04-1.91-0.12-3.82-0.24-5.72 c-0.3-4.87-1-9.68-2.03-14.44c-2.87-13.2-8.27-25.32-15.7-36.57c-0.17-0.26-0.44-0.49-0.71-0.62c-7.54-3.5-15.39-5.99-23.57-7.49 c-0.58-0.11-0.79,0.08-1,0.53c-0.85,1.81-1.72,3.62-2.57,5.43c-0.15,0.32-0.27,0.56-0.71,0.49c-3.92-0.6-7.86-0.91-11.83-0.97 c-4.86-0.08-9.69,0.22-14.49,0.93c-0.51,0.08-0.74-0.02-0.96-0.5c-0.86-1.86-1.79-3.69-2.67-5.54c-0.18-0.38-0.38-0.46-0.81-0.38 c-8.21,1.47-16.08,3.98-23.64,7.49c-0.32,0.15-0.62,0.43-0.81,0.72c-4.13,6.31-7.67,12.94-10.51,19.94 c-4.32,10.65-6.81,21.72-7.28,33.2c-0.19,4.63,0.18,9.27,0.17,13.91c0,1.58,0.62,2.49,1.87,3.38c8.58,6.1,17.81,10.85,27.84,14.06 c0.57,0.18,0.87,0.09,1.18-0.41c1.37-2.2,2.79-4.36,4.14-6.57c0.66-1.09,1.21-2.24,1.84-3.42c-3.57-1.42-6.95-3.02-10.13-4.98 c0.05-0.12,0.05-0.17,0.08-0.2c0.58-0.47,1.2-0.89,1.73-1.41c0.49-0.48,0.89-0.43,1.48-0.17c10.3,4.69,21.09,6.99,32.43,6.53 c5.07-0.21,10.05-0.98,14.95-2.29c4.06-1.09,7.99-2.53,11.8-4.28c0.25-0.12,0.66-0.25,0.82-0.13c0.81,0.57,1.56,1.22,2.35,1.84 c-0.1,0.12-0.13,0.19-0.18,0.22C262.28,258.9,258.97,260.49,255.46,261.86z" style="fill: rgb(255, 255, 255); opacity: 0;"/>
    <path d="M255.46,261.86c3.51-1.37,6.82-2.96,9.98-4.88c0.05-0.03,0.09-0.1,0.18-0.22c-0.78-0.63-1.54-1.28-2.35-1.84 c-0.16-0.12-0.57,0.02-0.82,0.13c-3.82,1.76-7.75,3.2-11.8,4.28c-4.9,1.31-9.88,2.08-14.95,2.29c-11.34,0.47-22.13-1.84-32.43-6.53 c-0.58-0.27-0.99-0.31-1.48,0.17c-0.53,0.52-1.15,0.94-1.73,1.41c-0.03,0.02-0.04,0.08-0.08,0.2c3.18,1.97,6.55,3.56,10.13,4.98 c-0.63,1.18-1.18,2.33-1.84,3.42c-1.35,2.21-2.77,4.37-4.14,6.57c-0.31,0.5-0.61,0.59-1.18,0.41 c-10.03-3.21-19.27-7.96-27.84-14.06c-1.25-0.89-1.87-1.81-1.87-3.38c0.01-4.64-0.36-9.28-0.17-13.91 c0.47-11.48,2.96-22.55,7.28-33.2c2.84-7,6.38-13.62,10.51-19.94c0.19-0.29,0.49-0.57,0.81-0.72c7.56-3.51,15.43-6.02,23.64-7.49 c0.43-0.08,0.63,0.01,0.81,0.38c0.88,1.85,1.81,3.68,2.67,5.54c0.22,0.47,0.45,0.57,0.96,0.5c4.8-0.71,9.63-1.02,14.49-0.93 c3.97,0.07,7.91,0.38,11.83,0.97c0.43,0.07,0.56-0.18,0.71-0.49c0.85-1.81,1.72-3.62,2.57-5.43c0.21-0.45,0.42-0.63,1-0.53 c8.18,1.49,16.04,3.98,23.57,7.49c0.28,0.13,0.55,0.37,0.71,0.62c7.44,11.24,12.84,23.36,15.7,36.57 c1.03,4.76,1.74,9.58,2.03,14.44c0.12,1.91,0.27,3.82,0.24,5.72c-0.08,4.02-0.25,8.04-0.43,12.06c-0.01,0.3-0.32,0.65-0.59,0.85 c-3.95,2.94-8.09,5.59-12.43,7.92c-5.33,2.87-10.89,5.18-16.64,7.05c-0.33,0.11-0.61,0.23-0.9-0.18 C259.32,268.88,257.27,265.5,255.46,261.86z M223.71,231.43c0.02-4.26-1.04-7.24-3.28-9.78c-3.87-4.37-10.46-4.6-14.57-0.5 c-4.78,4.77-5.14,12.77-0.82,17.98c3.43,4.14,9,5.08,13.3,2.15C222.08,238.72,223.6,234.97,223.71,231.43z M263.57,230.72 c-0.05-3.1-0.8-5.75-2.52-8.08c-4.36-5.92-12.38-5.9-16.7,0.03c-3.66,5.03-3.29,12.16,0.87,16.87c3.55,4.01,9.33,4.6,13.55,1.3 C262.12,238.23,263.44,234.63,263.57,230.72z"/>
  </g>
</svg>