<?xml version="1.0" encoding="utf-8"?>
<svg viewBox="379.118 -125.213 116 116.012" xmlns="http://www.w3.org/2000/svg">
  <g transform="matrix(1, 0, 0, 1, 779.918457, -88.803116)">
    <path d="M-342.87,79.6c-9.16,0-18.32,0.01-27.48-0.01c-1.47,0-2.98-0.02-4.4-0.36c-2.01-0.47-3.95-1.27-5.93-1.88 c-1.88-0.58-3.58-1.54-5.2-2.6c-1.61-1.04-3.18-2.19-4.56-3.51c-1.62-1.55-3.14-3.26-4.48-5.06c-1.11-1.49-1.95-3.19-2.81-4.84 c-0.63-1.21-1.17-2.48-1.63-3.77c-0.36-1-0.5-2.08-0.8-3.1c-0.6-2.02-0.64-4.09-0.64-6.17c0.01-18.46-0.01-36.91,0.02-55.37 c0.01-2.63,0.57-5.23,1.5-7.67c0.9-2.35,1.99-4.67,3.3-6.82c1.49-2.46,3.33-4.72,5.59-6.57c1.26-1.04,2.46-2.17,3.78-3.11 c1.05-0.75,2.21-1.35,3.39-1.89c1.82-0.82,3.65-1.64,5.54-2.25c1.45-0.46,3-0.7,4.52-0.84c1.8-0.17,3.61-0.18,5.42-0.18 c17.24-0.01,34.48,0,51.71-0.01c2.5,0,4.97,0.14,7.36,0.92c1.86,0.6,3.8,1.05,5.51,1.93c2.83,1.44,5.51,3.14,7.88,5.34 c2.14,1.98,4.02,4.15,5.6,6.56c0.92,1.4,1.68,2.93,2.35,4.46c0.85,1.94,1.67,3.9,1.9,6.05c0.17,1.63,0.6,3.24,0.6,4.87 c0.04,18.4,0.02,36.8,0.03,55.21c0,2-0.17,3.98-0.7,5.91c-0.45,1.63-0.8,3.31-1.46,4.85c-0.79,1.84-1.74,3.65-2.86,5.3 c-1.26,1.85-2.67,3.63-4.23,5.21c-1.49,1.5-3.21,2.8-4.94,4.03c-1.47,1.04-3.05,1.95-4.68,2.73c-1.36,0.65-2.84,1.03-4.28,1.5 c-0.91,0.3-1.83,0.62-2.77,0.79c-1.1,0.2-2.23,0.34-3.35,0.34C-323.68,79.61-333.28,79.6-342.87,79.6z M-342.82-25.94 c-8.73,0-17.45,0-26.18,0c-1.38,0-2.72,0.08-4.1,0.42c-1.39,0.34-2.77,0.69-4.11,1.22c-2.06,0.82-3.93,1.95-5.55,3.42 c-1.19,1.08-2.32,2.25-3.32,3.5c-0.8,1.01-1.43,2.17-1.99,3.33c-0.54,1.13-0.88,2.35-1.34,3.52c-0.56,1.43-0.94,2.92-0.94,4.45 c-0.02,18.45-0.01,36.91,0,55.36c0,0.64,0.02,1.31,0.19,1.92c0.45,1.63,0.89,3.28,1.51,4.84c0.53,1.33,1.23,2.61,2.02,3.81 c0.64,0.99,1.45,1.89,2.3,2.71c1.16,1.11,2.35,2.23,3.69,3.09c1.32,0.85,2.87,1.35,4.29,2.06c1.99,0.99,4.17,1.38,6.31,1.38 c17.64,0.08,35.28,0.05,52.93,0.03c1.05,0,2.09-0.06,3.15-0.22c1.73-0.26,3.41-0.58,5.01-1.26c1.46-0.62,2.98-1.23,4.26-2.15 c1.89-1.35,3.69-2.88,5.02-4.83c0.82-1.2,1.6-2.44,2.25-3.73c0.51-1.01,0.88-2.11,1.18-3.21c0.39-1.46,0.93-2.96,0.93-4.44 c0.06-18.45,0.04-36.91,0.03-55.36c0-0.69,0-1.42-0.19-2.08c-0.47-1.66-0.92-3.34-1.62-4.91c-0.68-1.53-1.55-3-2.52-4.37 c-1.1-1.55-2.51-2.83-4.02-4.03c-1.79-1.42-3.74-2.48-5.85-3.24c-1.96-0.7-3.99-1.22-6.1-1.22 C-324.66-25.94-333.74-25.94-342.82-25.94z"/>
    <path class="st0" d="M-342.84,51.52c10.09-0.09,18.11-4.26,24.22-12.24c3.5-4.57,5.45-9.82,5.8-15.49 c0.6-9.99-2.96-18.43-10.52-25.04c-4.94-4.32-10.8-6.73-17.31-7.14C-350.54-9-358.89-5.46-365.47,1.9 c-4.45,4.98-6.94,10.99-7.32,17.65c-0.54,9.4,2.64,17.52,9.58,23.96C-357.52,48.8-350.74,51.62-342.84,51.52z M-311.58-1.84 c4.07,0.01,8.07-3.76,7.59-8.47c-0.39-3.88-3.85-6.96-7.77-6.86c-4.15,0.1-8.04,3.42-7.55,8.51 C-318.96-5.15-315.85-1.83-311.58-1.84z" style="fill: rgb(255, 255, 255); opacity: 0;"/>
    <path d="M-342.84,51.52c-7.9,0.1-14.67-2.72-20.37-8.02c-6.93-6.44-10.11-14.55-9.58-23.96c0.38-6.66,2.87-12.67,7.32-17.65 c6.58-7.36,14.93-10.9,24.81-10.29c6.51,0.4,12.38,2.82,17.31,7.14c7.56,6.61,11.13,15.05,10.52,25.04 c-0.34,5.67-2.3,10.92-5.8,15.49C-324.73,47.26-332.75,51.43-342.84,51.52z M-327.88,9.12c-1.34-1.61-2.9-3.02-4.75-4.13 c-1.9-1.15-3.92-1.98-6.05-2.42c-1.59-0.33-3.25-0.31-4.89-0.36c-2.63-0.07-5.08,0.68-7.47,1.76c-2.92,1.31-5.23,3.34-7.22,5.82 c-1.16,1.45-2.05,3.03-2.67,4.74c-0.52,1.44-0.88,2.97-1.11,4.49c-0.33,2.21-0.35,4.42,0.26,6.63c0.33,1.21,0.69,2.38,1.13,3.56 c1,2.66,2.64,4.82,4.68,6.69c1.34,1.23,2.82,2.24,4.48,3.06c2.2,1.09,4.48,1.79,6.88,2.01c2.8,0.26,5.56-0.07,8.24-1.05 c2.09-0.76,4.05-1.74,5.72-3.2c1.13-0.99,2.19-2.07,3.16-3.22c1.09-1.3,2.01-2.72,2.5-4.39c0.4-1.38,1.06-2.68,1.38-4.07 c0.26-1.11,0.18-2.3,0.26-3.47c-0.08-1.17,0-2.39-0.27-3.53"/>
    <path d="M-311.58-1.84c-4.27,0-7.38-3.31-7.72-6.82c-0.49-5.09,3.4-8.41,7.55-8.51c3.91-0.1,7.37,2.98,7.77,6.86 C-303.5-5.6-307.51-1.83-311.58-1.84z"/>
  </g>
</svg>