<?xml version="1.0" encoding="utf-8"?>
<svg viewBox="546.216 236.781 124.992 100.5" xmlns="http://www.w3.org/2000/svg">
  <g transform="matrix(1, 0, 0, 1, 951.518188, -126.278923)">
    <path class="st0" d="M-280.31,400.34c-1.59-1.61-3.34-3.42-5.13-5.2c-1.93-1.93-3.91-3.81-5.84-5.73 c-5.73-5.72-11.44-11.47-17.17-17.18c-2.75-2.74-5.63-5.35-8.27-8.18c-0.75-0.8-1.39-0.98-2.32-0.97 c-7.75,0.02-15.51,0.01-23.26,0.01c-8.1,0-16.19-0.01-24.29,0.02c-0.61,0-1.39,0.13-1.79,0.51c-1.9,1.78-3.71,3.68-5.54,5.53 c-3.2,3.23-6.39,6.49-9.62,9.7c-3.01,2.99-6.07,5.93-9.08,8.92c-1.93,1.92-3.82,3.88-5.75,5.81c-2.17,2.17-4.36,4.33-6.56,6.47 c-0.45,0.44-0.51,0.72-0.01,1.2c1.51,1.44,2.95,2.95,4.43,4.42c5.61,5.58,11.24,11.15,16.84,16.74c4.48,4.46,8.93,8.96,13.41,13.42 c4.14,4.11,8.32,8.17,12.46,12.28c3.9,3.87,7.79,7.76,11.65,11.67c1.11,1.12,2.13,2.34,3.43,3.78 C-321.77,442.32-301.12,421.41-280.31,400.34z" style="fill: rgb(255, 255, 255); opacity: 0;"/>
    <path d="M-280.31,400.34c-20.81,21.07-41.47,41.99-62.42,63.2c-1.3-1.44-2.32-2.65-3.43-3.78c-3.87-3.91-7.75-7.8-11.65-11.67 c-4.14-4.11-8.33-8.17-12.46-12.28c-4.49-4.46-8.93-8.96-13.41-13.42c-5.61-5.59-11.23-11.16-16.84-16.74 c-1.48-1.47-2.92-2.98-4.43-4.42c-0.5-0.48-0.44-0.76,0.01-1.2c2.2-2.14,4.39-4.3,6.56-6.47c1.93-1.92,3.81-3.89,5.75-5.81 c3.01-2.99,6.07-5.93,9.08-8.92c3.23-3.21,6.41-6.46,9.62-9.7c1.84-1.86,3.64-3.75,5.54-5.53c0.41-0.38,1.18-0.5,1.79-0.51 c8.1-0.03,16.19-0.02,24.29-0.02c7.75,0,15.51,0.01,23.26-0.01c0.94,0,1.58,0.18,2.32,0.97c2.65,2.83,5.52,5.45,8.27,8.18 c5.74,5.71,11.44,11.46,17.17,17.18c1.93,1.93,3.91,3.81,5.84,5.73C-283.65,396.92-281.89,398.73-280.31,400.34z M-303.56,401.18 c0.56-0.55,0.64-1.13,0.08-1.7c-1.19-1.23-2.4-2.43-3.61-3.64c-2.2-2.2-4.44-4.37-6.61-6.6c-3.22-3.3-6.62-6.33-10.74-8.52 c-5.76-3.06-11.9-4.59-18.39-4.63c-4.52-0.03-8.93,0.76-13.18,2.34c-3.44,1.28-6.67,2.95-9.58,5.22c-0.34,0.26-0.54,0.7-0.88,0.97 c-0.3,0.24-0.77,0.3-1.04,0.57c-4.89,4.79-9.78,9.59-14.62,14.44c-0.25,0.25-0.27,1.03-0.06,1.36c0.37,0.59,1,1.03,1.51,1.54 c2.74,2.73,5.5,5.45,8.22,8.19c2.78,2.79,5.55,5.55,8.91,7.7c6.31,4.04,13.15,6.06,21.9,6.1c2.29,0.12,5.77-0.46,9.2-1.38 c4.3-1.16,8.33-2.97,11.84-5.71"/>
    <path class="st1" d="M-342.78,415.9c8.67-0.01,15.63-6.78,15.62-15.21c-0.01-8.3-7.07-15.18-15.58-15.17 c-8.55,0-15.59,6.83-15.6,15.13C-358.36,409.09-351.4,415.91-342.78,415.9z" style="fill: rgb(255, 255, 255);"/>
    <path d="M-342.78,415.9c-8.63,0.01-15.58-6.81-15.57-15.25c0.02-8.3,7.05-15.13,15.6-15.13c8.51,0,15.57,6.87,15.58,15.17 C-327.15,409.12-334.1,415.9-342.78,415.9z"/>
  </g>
</svg>