<?xml version="1.0" encoding="utf-8"?>
<svg viewBox="847.513 -64.084 87.536 87.368" xmlns="http://www.w3.org/2000/svg">
  <g transform="matrix(1, 0, 0, 1, 1061.973145, -27.658384)">
    <path class="st0" d="M-214.46,7.79c0.07,0.79,0.22,2.03,0.29,3.28c0.2,3.76,1.09,7.38,2.33,10.9c1.19,3.37,2.79,6.55,4.81,9.51 c2.04,2.99,4.34,5.76,7.05,8.16c1.34,1.19,2.74,2.32,4.21,3.36c1.38,0.98,2.85,1.84,4.33,2.68c0.97,0.56,2.01,1,3.03,1.48 c0.99,0.46,1.98,0.95,3,1.32c1.07,0.38,2.19,0.68,3.3,0.93c2.04,0.46,4.08,0.97,6.16,1.26c1.72,0.24,3.48,0.3,5.21,0.26 c2.14-0.05,4.28-0.2,6.41-0.46c1.68-0.21,3.34-0.65,5-1.04c1-0.24,1.98-0.56,2.96-0.89c1.13-0.38,2.29-0.73,3.36-1.24 c1.49-0.71,2.93-1.51,4.36-2.34c1.35-0.78,2.71-1.56,3.96-2.48c1.28-0.94,2.44-2.05,3.64-3.11c2.32-2.06,4.36-4.38,6.14-6.91 c1.12-1.58,2.19-3.23,3.02-4.97c1.11-2.32,2.09-4.72,2.91-7.16c1.11-3.28,1.83-6.67,1.95-10.16c0.09-2.71,0.24-5.41-0.23-8.1 c-0.32-1.84-0.64-3.69-1.05-5.52c-0.5-2.24-1.32-4.38-2.19-6.52c-0.95-2.35-2.2-4.52-3.52-6.65c-1.41-2.28-3.12-4.35-4.98-6.27 c-1.31-1.35-2.66-2.67-4.13-3.84c-2.32-1.86-4.79-3.51-7.48-4.83c-2.38-1.16-4.75-2.3-7.32-3c-1.54-0.42-3.05-0.92-4.63-1.12 c-1.54-0.19-3.04-0.58-4.62-0.64c-2.95-0.11-5.89-0.24-8.81,0.21c-2.31,0.36-4.61,0.85-6.91,1.29c-0.43,0.08-0.88,0.18-1.29,0.34 c-0.83,0.33-1.65,0.69-2.47,1.07c-1.99,0.93-4.03,1.76-5.94,2.84c-3.1,1.75-5.92,3.94-8.48,6.4c-1.65,1.58-3.07,3.42-4.53,5.2 c-1.75,2.12-3.12,4.51-4.32,6.96c-1.36,2.78-2.44,5.67-3.17,8.7C-213.94,0.19-214.34,3.74-214.46,7.79z" style="fill: rgb(255, 255, 255); opacity: 0;"/>
    <path d="M-214.46,7.79c0.13-4.05,0.52-7.6,1.37-11.1c0.73-3.02,1.81-5.92,3.17-8.7c1.2-2.45,2.57-4.84,4.32-6.96 c1.46-1.78,2.88-3.61,4.53-5.2c2.56-2.46,5.37-4.65,8.48-6.4c1.91-1.07,3.95-1.91,5.94-2.84c0.81-0.38,1.63-0.74,2.47-1.07 c0.41-0.16,0.85-0.25,1.29-0.34c2.3-0.44,4.59-0.93,6.91-1.29c2.92-0.45,5.87-0.32,8.81-0.21c1.57,0.06,3.08,0.45,4.62,0.64 c1.58,0.2,3.1,0.7,4.63,1.12c2.57,0.7,4.94,1.84,7.32,3c2.69,1.32,5.16,2.97,7.48,4.83c1.46,1.17,2.82,2.49,4.13,3.84 c1.86,1.92,3.58,3.99,4.98,6.27c1.32,2.13,2.57,4.3,3.52,6.65c0.86,2.14,1.68,4.28,2.19,6.52c0.41,1.83,0.73,3.67,1.05,5.52 c0.47,2.69,0.32,5.39,0.23,8.1c-0.12,3.49-0.84,6.87-1.95,10.16c-0.82,2.44-1.8,4.84-2.91,7.16c-0.83,1.74-1.9,3.39-3.02,4.97 c-1.78,2.53-3.82,4.85-6.14,6.91c-1.19,1.06-2.36,2.16-3.64,3.11c-1.25,0.92-2.61,1.7-3.96,2.48c-1.43,0.82-2.87,1.63-4.36,2.34 c-1.08,0.51-2.23,0.86-3.36,1.24c-0.98,0.33-1.96,0.65-2.96,0.89c-1.66,0.39-3.31,0.83-5,1.04c-2.12,0.27-4.27,0.42-6.41,0.46 c-1.74,0.04-3.5-0.02-5.21-0.26c-2.07-0.29-4.11-0.8-6.16-1.26c-1.11-0.25-2.23-0.55-3.3-0.93c-1.03-0.37-2.01-0.86-3-1.32 c-1.02-0.47-2.06-0.92-3.03-1.48c-1.47-0.84-2.95-1.7-4.33-2.68c-1.46-1.04-2.86-2.18-4.21-3.36c-2.72-2.4-5.02-5.17-7.05-8.16 c-2.02-2.96-3.63-6.14-4.81-9.51c-1.24-3.52-2.13-7.14-2.33-10.9C-214.24,9.82-214.39,8.58-214.46,7.79z M-165.1,22.03 c0-2-0.01-3.84,0.02-5.68c0-0.17,0.19-0.43,0.36-0.5c0.55-0.26,1.14-0.42,1.69-0.67c1.24-0.56,2.56-1.01,3.68-1.76 c1.49-1,2.9-2.16,4.2-3.39c1.29-1.23,2.23-2.74,2.66-4.51c0.98-4.08-0.1-7.72-2.37-11.12c-2.7-4.05-6.32-7.1-10.36-9.71 c-0.2-0.13-0.42-0.42-0.43-0.64c-0.05-1.2-0.08-2.41-0.04-3.61c0.09-2.44-0.4-2.99-2.84-2.98c-2.28,0.01-2.82,0.6-2.7,2.91 c0.03,0.65,0,1.3,0,2.02c-1.45-0.3-2.75-0.62-4.07-0.82c-1.3-0.19-2.62-0.26-3.93-0.38c-0.04,0.07-0.08,0.13-0.11,0.2 c9.06,11.31,9.11,22.67,0.25,34.15c0.29,0.07,0.51,0.16,0.73,0.16c2.1-0.02,4.2-0.03,6.3-0.09c0.66-0.02,0.89,0.26,0.89,0.88 c-0.01,1.61-0.01,3.21,0,4.82c0.01,0.49-0.25,0.74-0.68,0.71c-2.3-0.15-4.64-0.12-6.88-0.56c-2.9-0.58-3.96-2.12-4.13-5.15 c-0.02-0.29-0.05-0.58-0.07-0.8c-0.58,0-1.07,0-1.55,0c-4.3,0-8.6,0-12.9,0c-0.3,0-0.61-0.03-0.91-0.08 c-0.79-0.15-1.18,0.12-1.23,0.9c-0.25,3.78,1.39,6.83,3.9,9.42c1.87,1.94,3.95,3.69,6.03,5.41c0.69,0.57,1.64,1,2.53,1.12 c1.53,0.21,3.1,0.15,4.66,0.17c1.91,0.03,3.83,0.04,5.74,0.03c7.58-0.04,15.16-0.11,22.74-0.13c1.31,0,2.32-0.48,3.2-1.38 c2.61-2.69,4.66-5.8,6.55-8.99c1.43-2.43,3.43-4.14,5.84-5.44c1.51-0.81,1.89-1.59,1.86-2.87c-0.01-0.55-0.29-0.93-0.82-1 c-0.74-0.1-1.52-0.26-2.24-0.14c-2.06,0.36-4.11,0.79-6.14,1.31c-1.83,0.46-3.58,1.16-5.11,2.29c-1.62,1.2-3.19,2.49-4.8,3.7 c-0.56,0.42-1.17,0.79-1.8,1.08c-1.75,0.82-3.65,0.88-5.53,1C-163.6,21.96-164.3,21.99-165.1,22.03z M-195.09,9.98 c0.36,0.06,0.51,0.11,0.67,0.11c4.51,0,9.02,0.01,13.53-0.02c0.25,0,0.62-0.19,0.73-0.4c0.69-1.25,1.38-2.5,1.95-3.81 c0.8-1.85,0.95-3.82,0.85-5.81c-0.13-2.52-0.52-5.01-1.28-7.41c-0.48-1.51-1.14-2.98-1.84-4.41c-0.39-0.81-0.79-0.75-1.24,0 c-0.83,1.39-1.67,2.78-2.52,4.16c-1.11,1.8-2.24,3.58-3.34,5.38c-1.9,3.08-3.79,6.16-5.68,9.24 C-193.85,7.94-194.43,8.9-195.09,9.98z"/>
  </g>
</svg>