<?xml version="1.0" encoding="utf-8"?>
<svg viewBox="399.421 131.882 122.41 97.794" xmlns="http://www.w3.org/2000/svg">
  <g transform="matrix(1, 0, 0, 1, 789.780518, -59.216957)">
    <path class="st1" d="M-354.65,268.38c-0.66,0.35-1.31,0.64-1.9,1.03c-0.75,0.49-1.42,1.11-2.19,1.57 c-0.96,0.58-1.97,1.07-2.98,1.56c-0.38,0.19-0.83,0.24-1.21,0.42c-0.36,0.17-0.65,0.51-1.02,0.65c-1.14,0.45-2.31,0.82-3.45,1.27 c-0.77,0.31-1.6,0.29-2.36,0.81c-0.62,0.43-1.56,0.45-2.37,0.53c-0.69,0.07-1.24,0.38-1.85,0.62c-0.96,0.37-2.11,0.24-3.19,0.32 c-0.12,0.01-0.23,0.01-0.35,0.03c-1.62,0.18-3.25,0.49-4.87,0.52c-2.44,0.04-4.89-0.12-7.34-0.18c-0.21-0.01-0.42,0.12-0.63,0.18 c0.1,0.19,0.17,0.41,0.31,0.55c0.3,0.27,0.61,0.54,0.97,0.72c1.1,0.57,2.23,1.06,3.32,1.65c1.08,0.59,2.08,1.32,3.17,1.87 c0.67,0.33,1.46,0.43,2.2,0.64c-0.06,0.16-0.11,0.28-0.11,0.29c0.88,0.53,1.88,0.55,2.8,1.08c0.98,0.58,2.23,0.69,3.36,1.03 c0.49,0.15,0.96,0.37,1.44,0.54c0.49,0.17,0.98,0.4,1.47,0.42c0.63,0.04,1.07,0.43,1.61,0.6c0.85,0.25,1.74,0.35,2.62,0.49 c0.49,0.08,1,0.04,1.47,0.16c0.91,0.23,1.78,0.69,2.69,0.76c2.59,0.21,5.2,0.35,7.8,0.37c3.85,0.02,7.7-0.09,11.55-0.16 c1.23-0.02,2.45-0.11,3.68-0.17c0.12-0.01,0.29,0.01,0.34-0.06c0.72-0.95,1.98-0.05,2.74-0.82c1.9,0.14,3.59-0.74,5.38-1.11 c0.05-0.01,0.1-0.06,0.15-0.09c0.93-0.46,2.02-0.31,2.96-0.88c0.69-0.42,1.66-0.35,2.44-0.67c1.39-0.56,2.74-1.24,4.1-1.87 c0.76-0.35,1.53-0.69,2.28-1.07c1.26-0.63,2.5-1.28,3.76-1.9c0.12-0.06,0.36,0.01,0.42-0.07c0.79-1.08,2.13-1.32,3.14-2.08 c0.73-0.54,1.53-0.99,2.25-1.53c0.89-0.67,1.73-1.41,2.61-2.09c0.23-0.18,0.55-0.25,0.76-0.44c0.61-0.54,1.18-1.13,1.78-1.68 c1.06-0.97,2.18-1.89,3.2-2.9c0.99-0.99,1.88-2.06,2.81-3.11c0.76-0.86,1.55-1.71,2.26-2.61c0.51-0.64,0.88-1.38,1.38-2.03 c0.51-0.66,1.13-1.25,1.65-1.9c0.44-0.56,0.8-1.19,1.22-1.77c0.39-0.55,1.03-1.03,1.18-1.63c0.33-1.31,1.44-2.16,1.83-3.4 c0.09-0.29,0.18-0.59,0.33-0.84c0.45-0.77,0.98-1.5,1.39-2.28c0.28-0.52,0.37-1.14,0.62-1.69c0.61-1.36,1.31-2.68,1.87-4.06 c0.4-0.98,0.64-2.03,0.96-3.05c0.2-0.61,0.43-1.22,0.62-1.83c0.11-0.36,0.2-0.72,0.29-1.09c0.12-0.51,0.35-0.98,0.55-1.45 c0.6-1.38,0.35-2.99,1.06-4.42c0.38-0.77,0.31-1.78,0.41-2.68c0.04-0.35-0.02-0.71,0.02-1.06c0.16-1.5,0.43-2.99,0.49-4.49 c0.09-2.03,0.02-4.06,0.02-6.1c0-0.93-0.17-1.91,0.76-2.57c0.29-0.2,0.58-0.39,0.86-0.61c0.95-0.78,1.88-1.57,2.83-2.34 c0.24-0.19,0.57-0.29,0.79-0.5c0.68-0.67,1.32-1.38,1.97-2.08c0.51-0.55,1.04-1.08,1.52-1.66c1.14-1.38,2.27-2.78,3.36-4.2 c0.28-0.36,0.41-0.84,0.66-1.39c-0.64,0-1,0-1.38,0c0.07,0.17,0.12,0.28,0.17,0.4c-0.33,0.07-0.62,0.11-0.89,0.21 c-0.8,0.3-1.57,0.67-2.38,0.92c-1.06,0.33-2.15,0.57-3.21,0.88c-0.5,0.14-0.96,0.42-1.47,0.53c-1.07,0.22-2.15,0.37-3.23,0.53 c-0.14,0.02-0.29-0.05-0.64-0.11c0.78-0.49,1.44-0.81,1.97-1.26c0.67-0.58,1.26-1.26,1.86-1.91c0.67-0.73,1.35-1.46,1.98-2.22 c0.22-0.27,0.32-0.63,0.52-0.93c0.57-0.84,1.27-1.62,1.73-2.52c0.57-1.12,0.97-2.33,1.41-3.52c0.08-0.22,0.01-0.51,0.01-0.76 c-0.26,0.02-0.56-0.05-0.76,0.06c-1.16,0.63-2.28,1.33-3.45,1.96c-0.39,0.21-0.99,0.14-1.29,0.42c-1.14,1.06-2.71,1.01-4.01,1.71 c-1.35,0.73-3.03,0.87-4.54,1.4c-0.61,0.21-1.49,0.66-2.23-0.02c-0.47-0.43-0.97-0.85-1.47-1.25c-1.04-0.81-2.09-1.61-3.14-2.4 c-0.17-0.13-0.43-0.14-0.63-0.25c-0.84-0.48-1.64-1.04-2.51-1.46c-0.78-0.37-1.64-0.58-2.45-0.88c-0.42-0.15-0.8-0.45-1.23-0.52 c-1.18-0.17-2.37-0.36-3.56-0.36c-2.61-0.01-5.23,0.03-7.83,0.19c-1.13,0.07-2.29,0.36-3.33,0.79c-0.99,0.4-2.09,0.51-2.97,1.27 c-0.67,0.58-1.59,0.86-2.39,1.28c-0.35,0.18-0.74,0.3-1.04,0.53c-0.72,0.56-1.44,1.13-2.08,1.78c-1.39,1.38-2.87,2.7-4.06,4.24 c-0.99,1.27-1.61,2.82-2.4,4.24c-0.33,0.59-0.81,1.12-0.98,1.75c-0.35,1.31-0.35,2.68-1.03,3.95c-0.41,0.76-0.36,1.79-0.4,2.71 c-0.06,1.35-0.14,2.73,0.03,4.06c0.09,0.7,0.31,1.39,0.32,2.13c0,0.36,0.2,0.71,0.27,0.94c-1.36,0-2.81,0-4.27-0.01 c-0.1,0-0.21-0.08-0.31-0.12c-0.47-0.19-0.93-0.49-1.42-0.56c-0.98-0.14-2.07,0.08-2.95-0.27c-1.23-0.49-2.56-0.27-3.8-0.92 c-1.2-0.63-2.73-0.34-4.02-1.08c-1-0.58-2.27-0.48-3.35-1.17c-0.97-0.63-2.27-0.61-3.34-1.28c-0.74-0.47-1.73-0.52-2.54-1.08 c-0.9-0.63-2-0.98-3.01-1.47c-0.79-0.39-1.58-0.78-2.33-1.23c-1.32-0.8-2.6-1.66-3.91-2.47c-0.26-0.16-0.61-0.18-0.85-0.36 c-0.96-0.71-1.89-1.45-2.83-2.19c-0.46-0.37-0.88-0.78-1.35-1.14c-0.7-0.54-1.45-1-2.12-1.58c-0.58-0.5-1.05-1.12-1.61-1.65 c-1.05-1-2.14-1.97-3.19-2.96c-0.46-0.43-0.9-0.88-1.32-1.34c-0.67-0.73-1.3-1.5-1.98-2.22c-0.22-0.23-0.54-0.37-0.74-0.5 c-2.26,3.6-3.27,7.52-3.62,11.53c-0.36,4.16,0.76,8.2,2.52,11.95c1.75,3.72,4.42,6.8,7.69,9.37c-3.43-0.55-6.78-1.34-9.99-3.11 c-0.08,0.27-0.25,0.59-0.27,0.92c-0.13,2.03,0.04,4,0.83,5.92c0.5,1.22,0.74,2.53,1.12,3.8c0.16,0.52,0.29,1.07,0.58,1.51 c0.67,1.02,1.44,1.98,2.15,2.98c0.54,0.76,0.97,1.62,1.6,2.29c0.81,0.87,1.76,1.61,2.66,2.39c0.69,0.6,1.35,1.24,2.1,1.73 c0.89,0.58,1.86,1.04,2.8,1.53c0.63,0.33,1.26,0.71,1.92,0.94c0.8,0.29,1.65,0.45,2.48,0.66c-1.13,0.98-2.47,0.68-3.75,0.7 c-1.12,0.02-2.24,0.04-3.36-0.02c-0.42-0.02-0.82-0.32-1.24-0.38c-0.37-0.06-0.77,0.02-1.15,0.04c0.09,0.27,0.18,0.55,0.27,0.82 c0.03,0.08,0.13,0.14,0.13,0.21c-0.08,1.47,0.91,2.53,1.48,3.74c0.4,0.84,0.85,1.68,1.44,2.39c0.94,1.14,2.1,2.11,3.02,3.27 c1.03,1.3,2.35,2.21,3.67,3.13c0.27,0.19,0.73,0.17,0.93,0.4c0.87,1,2.16,1.24,3.25,1.82c0.61,0.33,1.51,0.24,2.01,0.66 c0.7,0.6,1.52,0.59,2.27,0.74c1.1,0.23,2.26,0.2,3.4,0.28C-354.88,267.81-354.79,268.04-354.65,268.38z" style="fill: rgb(255, 255, 255);"/>
    <path d="M-354.65,268.38c-0.13-0.34-0.23-0.57-0.31-0.8c-1.14-0.08-2.3-0.05-3.4-0.28c-0.75-0.16-1.57-0.14-2.27-0.74 c-0.49-0.42-1.39-0.33-2.01-0.66c-1.09-0.58-2.38-0.82-3.25-1.82c-0.2-0.23-0.65-0.21-0.93-0.4c-1.32-0.92-2.64-1.83-3.67-3.13 c-0.92-1.16-2.07-2.13-3.02-3.27c-0.59-0.71-1.04-1.55-1.44-2.39c-0.58-1.21-1.56-2.27-1.48-3.74c0-0.07-0.1-0.13-0.13-0.21 c-0.1-0.27-0.18-0.55-0.27-0.82c0.38-0.02,0.78-0.1,1.15-0.04c0.42,0.07,0.82,0.36,1.24,0.38c1.12,0.06,2.24,0.03,3.36,0.02 c1.28-0.02,2.62,0.28,3.75-0.7c-0.82-0.21-1.67-0.38-2.48-0.66c-0.67-0.24-1.29-0.61-1.92-0.94c-0.94-0.5-1.91-0.95-2.8-1.53 c-0.76-0.5-1.42-1.14-2.1-1.73c-0.9-0.78-1.86-1.52-2.66-2.39c-0.63-0.68-1.06-1.53-1.6-2.29c-0.71-1-1.48-1.96-2.15-2.98 c-0.29-0.44-0.42-1-0.58-1.51c-0.38-1.27-0.62-2.58-1.12-3.8c-0.79-1.92-0.96-3.89-0.83-5.92c0.02-0.33,0.19-0.66,0.27-0.92 c3.21,1.77,6.56,2.56,9.99,3.11c-3.26-2.58-5.94-5.65-7.69-9.37c-1.76-3.75-2.88-7.79-2.52-11.95c0.35-4.01,1.36-7.93,3.62-11.53 c0.2,0.13,0.52,0.27,0.74,0.5c0.68,0.72,1.31,1.49,1.98,2.22c0.42,0.46,0.86,0.91,1.32,1.34c1.06,0.99,2.14,1.96,3.19,2.96 c0.56,0.53,1.03,1.15,1.61,1.65c0.67,0.57,1.42,1.04,2.12,1.58c0.47,0.36,0.89,0.78,1.35,1.14c0.93,0.74,1.87,1.48,2.83,2.19 c0.24,0.18,0.59,0.2,0.85,0.36c1.31,0.81,2.59,1.67,3.91,2.47c0.75,0.45,1.54,0.84,2.33,1.23c1,0.5,2.1,0.84,3.01,1.47 c0.81,0.56,1.8,0.62,2.54,1.08c1.07,0.68,2.38,0.66,3.34,1.28c1.08,0.7,2.35,0.6,3.35,1.17c1.29,0.74,2.82,0.45,4.02,1.08 c1.23,0.65,2.56,0.43,3.8,0.92c0.88,0.35,1.97,0.13,2.95,0.27c0.49,0.07,0.95,0.36,1.42,0.56c0.1,0.04,0.21,0.12,0.31,0.12 c1.46,0.01,2.91,0.01,4.27,0.01c-0.07-0.23-0.26-0.58-0.27-0.94c-0.01-0.73-0.23-1.43-0.32-2.13c-0.17-1.33-0.09-2.71-0.03-4.06 c0.04-0.91-0.01-1.95,0.4-2.71c0.68-1.27,0.68-2.64,1.03-3.95c0.17-0.63,0.65-1.16,0.98-1.75c0.79-1.42,1.42-2.97,2.4-4.24 c1.19-1.54,2.67-2.86,4.06-4.24c0.65-0.64,1.36-1.21,2.08-1.78c0.3-0.23,0.69-0.35,1.04-0.53c0.81-0.41,1.72-0.7,2.39-1.28 c0.88-0.76,1.98-0.87,2.97-1.27c1.05-0.43,2.21-0.72,3.33-0.79c2.61-0.16,5.22-0.19,7.83-0.19c1.19,0,2.38,0.18,3.56,0.36 c0.43,0.06,0.81,0.36,1.23,0.52c0.82,0.3,1.67,0.5,2.45,0.88c0.87,0.41,1.67,0.98,2.51,1.46c0.19,0.11,0.45,0.12,0.63,0.25 c1.06,0.79,2.11,1.59,3.14,2.4c0.51,0.4,1,0.81,1.47,1.25c0.74,0.67,1.62,0.23,2.23,0.02c1.51-0.53,3.19-0.67,4.54-1.4 c1.3-0.7,2.88-0.66,4.01-1.71c0.3-0.28,0.89-0.21,1.29-0.42c1.16-0.62,2.29-1.32,3.45-1.96c0.2-0.11,0.5-0.04,0.76-0.06 c0,0.26,0.07,0.54-0.01,0.76c-0.44,1.19-0.84,2.4-1.41,3.52c-0.46,0.9-1.15,1.68-1.73,2.52c-0.2,0.29-0.3,0.66-0.52,0.93 c-0.64,0.76-1.31,1.49-1.98,2.22c-0.6,0.65-1.19,1.34-1.86,1.91c-0.53,0.46-1.18,0.77-1.97,1.26c0.35,0.06,0.5,0.13,0.64,0.11 c1.08-0.16,2.16-0.31,3.23-0.53c0.5-0.1,0.97-0.38,1.47-0.53c1.07-0.31,2.16-0.55,3.21-0.88c0.81-0.26,1.58-0.63,2.38-0.92 c0.27-0.1,0.56-0.13,0.89-0.21c-0.05-0.12-0.1-0.23-0.17-0.4c0.38,0,0.74,0,1.38,0c-0.26,0.55-0.39,1.03-0.66,1.39 c-1.09,1.42-2.22,2.82-3.36,4.2c-0.48,0.58-1.01,1.11-1.52,1.66c-0.65,0.7-1.29,1.41-1.97,2.08c-0.21,0.21-0.55,0.31-0.79,0.5 c-0.95,0.77-1.88,1.56-2.83,2.34c-0.27,0.22-0.57,0.41-0.86,0.61c-0.92,0.66-0.76,1.63-0.76,2.57c0,2.03,0.07,4.07-0.02,6.1 c-0.06,1.5-0.33,2.99-0.49,4.49c-0.04,0.35,0.02,0.71-0.02,1.06c-0.11,0.9-0.03,1.91-0.41,2.68c-0.71,1.43-0.46,3.04-1.06,4.42 c-0.21,0.47-0.43,0.94-0.55,1.45c-0.09,0.36-0.17,0.73-0.29,1.09c-0.2,0.61-0.43,1.21-0.62,1.83c-0.32,1.02-0.56,2.07-0.96,3.05 c-0.56,1.38-1.26,2.7-1.87,4.06c-0.24,0.55-0.34,1.16-0.62,1.69c-0.41,0.79-0.94,1.51-1.39,2.28c-0.15,0.26-0.24,0.56-0.33,0.84 c-0.39,1.25-1.5,2.09-1.83,3.4c-0.15,0.6-0.78,1.08-1.18,1.63c-0.42,0.58-0.78,1.21-1.22,1.77c-0.52,0.66-1.14,1.24-1.65,1.9 c-0.5,0.65-0.87,1.39-1.38,2.03c-0.71,0.9-1.5,1.75-2.26,2.61c-0.93,1.04-1.82,2.12-2.81,3.11c-1.02,1.02-2.14,1.93-3.2,2.9 c-0.6,0.55-1.17,1.14-1.78,1.68c-0.21,0.19-0.53,0.26-0.76,0.44c-0.88,0.69-1.72,1.42-2.61,2.09c-0.72,0.54-1.52,0.99-2.25,1.53 c-1.01,0.75-2.34,1-3.14,2.08c-0.06,0.08-0.3,0.01-0.42,0.07c-1.26,0.63-2.5,1.28-3.76,1.9c-0.75,0.37-1.52,0.72-2.28,1.07 c-1.36,0.63-2.71,1.31-4.1,1.87c-0.78,0.31-1.75,0.25-2.44,0.67c-0.94,0.58-2.03,0.42-2.96,0.88c-0.05,0.03-0.1,0.08-0.15,0.09 c-1.79,0.37-3.49,1.25-5.38,1.11c-0.76,0.77-2.03-0.13-2.74,0.82c-0.05,0.07-0.22,0.05-0.34,0.06c-1.23,0.06-2.45,0.15-3.68,0.17 c-3.85,0.07-7.7,0.18-11.55,0.16c-2.6-0.01-5.21-0.16-7.8-0.37c-0.91-0.07-1.79-0.54-2.69-0.76c-0.48-0.12-0.99-0.09-1.47-0.16 c-0.88-0.14-1.77-0.23-2.62-0.49c-0.54-0.16-0.99-0.56-1.61-0.6c-0.5-0.03-0.99-0.26-1.47-0.42c-0.49-0.17-0.95-0.39-1.44-0.54 c-1.13-0.34-2.37-0.46-3.36-1.03c-0.91-0.54-1.91-0.55-2.8-1.08c0-0.01,0.05-0.13,0.11-0.29c-0.74-0.21-1.53-0.3-2.2-0.64 c-1.1-0.55-2.1-1.28-3.17-1.87c-1.08-0.59-2.22-1.08-3.32-1.65c-0.35-0.18-0.67-0.45-0.97-0.72c-0.15-0.14-0.21-0.36-0.31-0.55 c0.21-0.06,0.42-0.19,0.63-0.18c2.45,0.06,4.89,0.22,7.34,0.18c1.63-0.03,3.25-0.34,4.87-0.52c0.12-0.01,0.23-0.02,0.35-0.03 c1.07-0.08,2.22,0.05,3.19-0.32c0.61-0.23,1.16-0.55,1.85-0.62c0.81-0.08,1.75-0.1,2.37-0.53c0.76-0.52,1.59-0.51,2.36-0.81 c1.14-0.45,2.31-0.82,3.45-1.27c0.37-0.15,0.66-0.48,1.02-0.65c0.38-0.18,0.83-0.23,1.21-0.42c1.01-0.49,2.02-0.98,2.98-1.56 c0.77-0.46,1.43-1.08,2.19-1.57C-355.96,269.02-355.31,268.73-354.65,268.38z"/>
  </g>
</svg>