<?xml version="1.0" encoding="utf-8"?>
<svg viewBox="842.252 405.533 115.819 80.942" xmlns="http://www.w3.org/2000/svg">
  <g transform="matrix(1, 0, 0, 1, 1273.021118, -132.196152)">
    <path d="M-430.76,582.94c0-1.69-0.02-3.37,0-5.06c0.03-2.23,0.07-4.47,0.15-6.7c0.07-1.98,0.15-3.96,0.3-5.93 c0.2-2.48,0.43-4.95,0.74-7.42c0.28-2.19,0.65-4.36,1.05-6.53c0.46-2.47,1.57-4.63,3.18-6.56c2.53-3.03,5.83-4.59,9.68-5.08 c2.27-0.29,4.54-0.54,6.82-0.74c2.29-0.2,4.58-0.33,6.88-0.45c2.4-0.13,4.8-0.21,7.2-0.3c1.74-0.06,3.47-0.11,5.21-0.15 c2.58-0.06,5.17-0.12,7.75-0.15c5.58-0.06,11.15-0.13,16.73-0.14c2.58-0.01,5.17,0.08,7.75,0.14c1.81,0.04,3.62,0.09,5.43,0.15 c2.43,0.09,4.85,0.19,7.28,0.3c1.68,0.08,3.36,0.15,5.03,0.3c3.99,0.37,8.02,0.47,11.91,1.5c4,1.06,7.04,3.41,9.05,7.08 c1.2,2.18,1.71,4.54,2.04,6.95c0.35,2.53,0.66,5.07,0.89,7.61c0.22,2.43,0.37,4.88,0.45,7.32c0.14,4.22,0.27,8.44,0.29,12.66 c0.01,2.67-0.15,5.35-0.29,8.02c-0.1,1.9-0.24,3.79-0.45,5.68c-0.47,4.14-0.76,8.32-2.21,12.28c-0.72,1.95-1.92,3.58-3.39,5.04 c-2.18,2.16-4.82,3.39-7.78,3.94c-1.69,0.31-3.41,0.48-5.12,0.63c-2.73,0.24-5.46,0.43-8.19,0.6c-2.07,0.13-4.15,0.23-6.23,0.3 c-3.67,0.12-7.34,0.26-11.02,0.29c-8.44,0.08-16.88,0.12-25.33,0.15c-2.01,0.01-4.02-0.08-6.03-0.14c-2.8-0.09-5.6-0.18-8.4-0.3 c-1.8-0.08-3.61-0.17-5.41-0.3c-2.41-0.17-4.83-0.3-7.22-0.62c-2.33-0.31-4.71-0.56-6.92-1.29c-5.19-1.71-8.34-5.45-9.56-10.74 c-0.5-2.17-0.79-4.39-1.06-6.61c-0.28-2.22-0.44-4.46-0.61-6.7c-0.14-1.87-0.2-3.75-0.31-5.63c-0.06-1.14-0.14-2.27-0.21-3.41 C-430.71,582.95-430.73,582.94-430.76,582.94z M-384.4,595.72c10.13-5.85,20.12-11.62,30.3-17.49c-10.22-5.9-20.2-11.66-30.3-17.49 C-384.4,572.47-384.4,583.99-384.4,595.72z"/>
    <path class="st0" d="M-384.4,595.72c0-11.73,0-23.25,0-34.98c10.1,5.83,20.07,11.59,30.3,17.49 C-364.28,584.11-374.28,589.88-384.4,595.72z" style="fill: rgb(255, 255, 255); opacity: 0;"/>
  </g>
</svg>