<?xml version="1.0" encoding="utf-8"?>
<svg fill="current" stroke="current" viewBox="64.686 40.038 288.069 264.11" xmlns="http://www.w3.org/2000/svg">
  <g transform="matrix(1, 0, 0, 1, -751.251953, -367.860779)">
    <path d="M959.94,672c-35.26,0-70.51,0.01-105.77,0c-23.02-0.01-38.21-15.26-38.22-38.35c-0.01-14.76-0.02-29.51,0-44.26 c0.01-7.98,4.89-13.4,11.99-13.41c7.07,0,11.99,5.46,12,13.41c0.02,15.01-0.01,30.01,0.01,45.02c0.01,8.87,4.76,13.58,13.72,13.58 c70.89,0.01,141.77,0.01,212.66,0c8.94,0,13.64-4.7,13.65-13.65c0.02-15.01-0.01-30.01,0.01-45.02 c0.01-7.95,4.94-13.38,12.05-13.35c7.07,0.03,11.93,5.49,11.94,13.47c0.02,15.13,0.05,30.26,0,45.39 c-0.07,21.57-15.59,37.12-37.15,37.15C1031.2,672.03,995.57,672,959.94,672z"/>
    <path d="M947.97,586.85c0-2.31,0-3.79,0-5.27c0-53.13-0.01-106.25,0.03-159.38c0-1.97,0.09-4.04,0.65-5.91 c1.64-5.56,7.02-8.97,12.69-8.31c5.58,0.64,10.11,5.3,10.58,10.97c0.11,1.37,0.06,2.75,0.06,4.12c0,53,0,106,0,159 c0,1.34,0,2.68,0,4.6c1.32-0.91,2.23-1.46,3.05-2.11c12.5-9.98,24.99-19.97,37.48-29.95c5.99-4.78,13.26-4.27,17.64,1.23 c4.27,5.37,3.35,12.59-2.43,17.24c-19.77,15.89-39.58,31.74-59.42,47.54c-5.68,4.53-11.01,4.48-16.69-0.05 c-19.34-15.43-38.67-30.88-57.96-46.36c-5.56-4.46-6.47-11.67-2.31-16.98c4.24-5.41,11.54-6.16,17.31-1.6 c11.96,9.45,23.84,19,35.77,28.5C945.36,584.89,946.34,585.61,947.97,586.85z"/>
  </g>
</svg>