<?xml version="1.0" encoding="UTF-8"?>
<!DOCTYPE svg PUBLIC "-//W3C//DTD SVG 1.1//EN" "http://www.w3.org/Graphics/SVG/1.1/DTD/svg11.dtd">
<!-- Creator: CorelDRAW 2020 (64-Bit) -->
<svg xmlns="http://www.w3.org/2000/svg" xml:space="preserve"  version="1.1" style="shape-rendering:geometricPrecision; text-rendering:geometricPrecision; image-rendering:optimizeQuality; fill-rule:evenodd; clip-rule:evenodd"
viewBox="0 0 1373.18 1199.31"
 xmlnsXlink="http://www.w3.org/1999/xlink"
>
 <defs>
  <style type="text/css">
  `.str0 {stroke:black;stroke-width:3.13;stroke-miterlimit:2.61313}
    .fil2 {fill:black}
    .fil1 {fill:white}
    .fil0 {fill:#CCFFCC;fill-rule:nonzero}
    `
  </style>
 </defs>
 <g id="Layer_x0020_1">
  <metadata id="CorelCorpID_0Corel-Layer"/>
  <g id="_1724890885184">
   <path class="fil0" d="M1126.7 222.69l3.39 -4.51c-1.4,0.73 -2.62,1.38 -3.69,1.95 -4.35,2.32 -6.71,3.58 -9.36,3.95 -3.15,0.43 -6.24,-0.43 -12.98,-2.32l-4.62 -1.28 -8.05 4.7 -9.24 5.32 -0.65 -0.18c-3.66,-1.04 -7.68,-2.22 -11.7,-3.39l-4.11 -1.2c-2.6,1.48 -5.31,3 -8.09,4.54l-9.29 5.14 -8.85 -2.73 -7.56 -2.36c-1.53,0.84 -3.01,1.68 -4.39,2.46 -12.12,6.87 -16.51,9.36 -32.49,-0.58l-2.38 -1.48 2.49 -1.28c2.1,-1.08 3.95,-2.07 5.78,-3.04l-4.98 -5.78 1.79 -0.93c1.62,-0.84 3.21,-1.69 4.8,-2.54l0.97 -0.52c-1.65,-1.93 -3.31,-3.84 -4.97,-5.75l7.5 -4.03 -5.28 -6.16 2.4 -0.68c6.6,-1.85 8.62,-3.34 12.71,-6.36 1.17,-0.86 2.5,-1.85 4.22,-3.04l0.75 -0.53 6.99 3.28 5.35 2.5c3.97,-2.68 8.23,-5.6 12.47,-8.52l0.76 -0.52 2.56 1.16c3.4,1.55 6.81,3.09 9.8,4.43l5.86 -4.09 7.31 -5.15 7.02 3.07 5.38 2.33 5.84 -4.18 7.18 -5.18 7.91 2.23 4.46 1.23c-0.92,-2.76 -1.86,-5.51 -2.81,-8.26l0.82 -0.7c2.13,-1.84 4.49,-3.95 6.84,-6.04l0.01 -0.01 -4.64 -7.8 1 -0.88c1.73,-1.51 3.42,-3.02 5.1,-4.53l1.71 -1.54 -4.65 -7.82 4.86 -4.34 2.9 -2.63 -4.53 -7.61 3.48 -4.87 -1.24 0.71c-2.8,1.62 -5.36,3.08 -7.66,4.38l-0.68 0.39 -0.72 -0.3c-4.19,-1.77 -7.44,-3.17 -10.72,-4.59l-0.8 -0.34c-3.25,2.44 -6.63,4.92 -10,7.4l-2.88 2.11 -0.84 -0.37c-3.74,-1.63 -7.62,-3.37 -11.5,-5.1l-5.65 4.1c-2.29,1.65 -4.47,3.21 -6.54,4.68l-0.75 0.53 -6.99 -3.2 -5.31 -2.46 -5.72 4.06 -7.28 5.07 -2.69 -1.29c-4.81,-2.3 -7.82,-3.74 -12.67,-7.08l-2.02 -1.39c2.65,-1.6 5.28,-3.22 7.91,-4.84l-4.95 -6.12 1.55 -0.94c1.51,-0.92 3.31,-2.05 5.1,-3.16l0.68 -0.42 -4.95 -6.13 1.54 -0.95c1.82,-1.11 3.58,-2.21 5.34,-3.32l0.42 -0.26 -5.22 -6.44 2.06 -0.78c6.82,-2.57 11.11,-5.15 16.76,-8.56l4.32 -2.59 0.68 0.22c3.05,1 5.68,1.85 8.04,2.6l7.38 2.34c2.76,-1.65 5.29,-3.17 7.67,-4.61l8.87 -5.41 0.69 0.21c2.45,0.76 5.16,1.58 8.05,2.44l7.39 2.19c2.45,-1.52 5.01,-3.12 7.64,-4.78l8.82 -5.58 0.69 0.2c2.94,0.85 5.66,1.62 8.07,2.29 2.3,0.64 4.76,1.32 7.4,2.03 3.41,-2.2 5.93,-3.94 7.91,-5.32 3.86,-2.68 5.85,-4.06 8.28,-4.6 2.56,-0.58 5.16,-0.1 10.52,0.87 1.61,0.29 3.48,0.63 5.72,1.01l-3.14 -8.55c2.43,-2.36 4.84,-4.74 7.25,-7.13l-4.86 -7.77 0.91 -0.89c1.44,-1.42 2.87,-2.85 4.29,-4.27l2.17 -2.17c-1.62,-2.59 -3.25,-5.19 -4.86,-7.79 2.44,-2.44 4.88,-4.9 7.31,-7.36 -1.59,-2.52 -3.17,-5.05 -4.75,-7.58l4.38 -6.91 -3.16 1.43c-10.2,4.62 -22,9.98 -31.8,9.47 -25.16,-1.3 -35.77,3.38 -43.91,6.97 -5.65,2.49 -10.18,4.49 -17.36,3.85 -25.18,-2.25 -35.87,2.02 -44.07,5.3 -5.69,2.27 -10.25,4.1 -17.4,3.19 -22.72,-2.89 -30.86,-0.61 -39.19,1.72 -9.27,2.59 -18.76,5.25 -47.1,1.44 -0.13,2.66 -0.18,5.36 -0.24,8.09 -0.24,11.11 -0.49,22.81 -4.78,32.63 -8.98,20.58 -10.49,34.61 -11.66,45.39 -0.78,7.25 -1.41,13.07 -3.99,18.57 -9.4,20.04 -11.3,34.17 -12.75,44.97 -0.96,7.16 -1.73,12.9 -4.32,18.09 -9.28,18.53 -11.7,29.49 -14.22,40.95 -2.56,11.64 -5.24,23.79 -15.16,44.72l4.06 -0.77c20.12,-3.84 38.19,-2.81 50.96,-2.09 7.44,0.43 13.04,0.75 15.92,-0.06 23.61,-6.61 37.75,-5.58 48.37,-4.81 6.5,0.48 11.65,0.85 16.72,-0.76 28.43,-9.04 34.07,-7.77 40.68,-6.27 3.84,0.88 8.04,1.83 18.1,0.54 10.47,-1.33 14.95,-3.32 19.3,-5.24 7.3,-3.23 14.25,-6.29 45.88,-6.15 -1,-2.91 -2,-5.81 -3.03,-8.7l0.84 -0.71c1.71,-1.44 3.22,-2.73 4.73,-4.02l2.3 -1.97 -4.67 -7.54c2.68,-2.3 5.35,-4.61 8.03,-6.92l-4.69 -7.56 1.03 -0.88c1.81,-1.57 3.4,-2.96 4.99,-4.35l1.97 -1.72 -4.56 -7.36 0.66 -0.87zm-516.21 -180.82l1.3 -1.51c-1.61,0.16 -3.24,0.34 -4.89,0.52 -10.47,1.16 -21.74,2.41 -31.11,-1.13 -23.69,-8.96 -34.87,-7.91 -43.51,-7.1 -5.94,0.55 -10.76,1 -17.44,-1.67 -23.63,-9.46 -35,-8.76 -43.83,-8.21 -6.04,0.37 -10.96,0.68 -17.65,-2.11 -19.75,-8.24 -29.62,-9.06 -40.21,-9.94 -10.89,-0.91 -22.54,-1.88 -46.01,-10.72 0.79,3.5 1.57,7.01 2.34,10.51l-1 0.59c-1.66,0.98 -3.78,2.21 -5.89,3.43l-1.64 0.95 0.74 1.93c0.92,2.42 1.85,4.85 2.76,7.33l0.46 1.25 -1.16 0.68c-1.92,1.11 -3.91,2.24 -5.89,3.36l-1.69 0.96 0.51 1.37c1.02,2.73 2.04,5.47 2.92,7.88l0.46 1.27 -1.17 0.66c-1.99,1.14 -4.22,2.38 -6.44,3.62l-1.19 0.66c1.19,3.26 2.38,6.5 3.36,9.26l0.35 0.98 -4.48 4.19 6.37 -1.8 7.46 8.57c1.96,-1.08 4.12,-2.3 6.26,-3.5l3.01 -1.7 7.61 8.77 9.25 -5.25 7.57 8.77c2.14,-1.23 4.32,-2.49 6.49,-3.75l2.82 -1.62 0.84 1.13c3.41,4.56 5.55,10.77 5.83,16.98 0.26,5.75 -1.06,11.52 -4.41,16.04 -12.11,16.34 -11.62,23.28 -11.24,28.73 0.29,4.13 0.53,7.51 -3.55,12.77 -12.51,16.13 -12.17,23.06 -11.92,28.48 0.2,4.12 0.36,7.48 -3.83,12.64 -11.17,13.73 -11.7,18.62 -12.29,24.11 -0.65,6.04 -1.37,12.77 -14.04,30.48 2.52,-0.2 4.55,-0.4 6.24,-0.57 4.44,-0.44 6.71,-0.67 8.93,-0.02 2.35,0.68 4.18,2.18 7.94,5.25 1.55,1.27 3.44,2.82 5.84,4.7 4.28,-0.88 9.07,-1.9 13.84,-2.91l2.36 -0.51 7.22 5.65 6.06 4.69c4.4,-0.96 8.57,-1.92 12.72,-2.87l3.45 -0.79 7.23 5.54 6.05 4.6c4.54,-1.07 8.64,-2.07 12.75,-3.07l3.33 -0.82 8.31 5.15 5.69 3.5c0.2,-1.54 0.37,-3.14 0.54,-4.78 0.83,-7.96 1.75,-16.69 6.36,-22.51 13.06,-16.48 12.73,-23.29 12.46,-28.82 -0.2,-4.13 -0.37,-7.64 3.83,-13.19 12.67,-16.76 12.2,-23.59 11.83,-29.14 -0.28,-4.14 -0.52,-7.66 3.55,-13.3 10.66,-14.78 11.11,-22.92 11.51,-30.04 0.5,-9 0.92,-16.5 18.68,-32.07l1.23 -1.07c2.33,2.83 4.65,5.67 6.97,8.52 1.4,-0.99 2.62,-1.87 3.84,-2.75l4.69 -3.35 6.85 8.35c2.01,-1.44 3.86,-2.79 5.7,-4.13l2.81 -2.05 6.86 8.31c1.54,-1.11 3.12,-2.28 4.7,-3.45l3.6 -2.67 6.53 5.61 -1.64 -9.05 0.84 -0.58c2.5,-1.74 4.68,-3.27 6.86,-4.8l0.7 -0.49 -3.67 -10.53 5.25 -3.7 3.24 -2.31 -3.75 -10.55 5.2 -3.7 3.23 -2.35 -1.16 -3.19c-0.77,-2.13 -1.55,-4.27 -2.25,-6.25l-0.3 -0.86 4.72 -5.49zm223.22 257.41c1.69,0.68 3.71,1.5 6.13,2.42 0.35,-2.65 0.63,-5.35 0.91,-8.07 1.08,-10.48 2.22,-21.43 7.02,-30.4 11.71,-21.88 12.86,-33.69 13.79,-43.26 0.63,-6.47 1.17,-11.95 4.59,-18.76 11.32,-22.5 12.15,-34.22 12.83,-43.78 0.46,-6.49 0.85,-12.02 4.22,-19.18 8.62,-18.37 10.83,-30.73 13.31,-44.58 2.12,-11.89 4.45,-24.88 11.14,-43.7l-5.24 2.15c-2.97,1.22 -5.84,2.38 -8.58,3.47l-0.66 0.27 -0.63 -0.31c-2.99,-1.46 -6.6,-3.24 -10.23,-5.04l-3.08 -1.52 -6.75 3.67c-2.71,1.47 -5.18,2.79 -7.35,3.95l-0.73 0.38 -7.77 -3.94 -6.27 -3.22c-2.53,1.35 -4.7,2.49 -6.69,3.52l-8.19 4.23 -0.73 -0.39c-3.59,-1.88 -6.41,-3.37 -9.24,-4.87l-4.05 -2.14 -6.71 3.39 -8.12 4.05 -0.66 -0.28c-2.68,-1.1 -5.36,-2.24 -8.04,-3.38l-5.54 -2.37c0.23,2.17 0.46,4.07 0.65,5.68 0.54,4.41 0.81,6.72 0.2,8.98 -0.68,2.49 -2.3,4.45 -5.69,8.56 -0.93,1.13 -2.01,2.44 -3.31,4.06 0.86,5.07 1.72,10.15 2.57,15.23l-0.44 0.55c-1.5,1.88 -3.13,3.9 -4.82,5.97l-4.4 5.37 2.43 15.18 -5.34 6.47 -4.47 5.33 1.05 6.85 1.24 8.3 -0.5 0.56c-2.46,2.75 -4.68,5.25 -6.91,7.85 -2.18,2.56 -4.32,5.14 -6.6,8.06l-1.31 1.67 -5.58 -7.77 -2.21 2.22 -4.88 4.86 -5.43 -7.61c-2.36,2.35 -4.72,4.69 -7.09,7.02l-5.43 -7.64c-2.43,2.4 -4.87,4.78 -7.32,7.17l-0.97 -1.94c-3.49,-6.9 -3.7,-8.55 -4.39,-13.89 -0.15,-1.21 -0.34,-2.66 -0.67,-4.83l-0.11 -0.72 0.5 -0.57c2.16,-2.44 4.45,-5.08 6.74,-7.7l2.75 -3.17 -2.25 -15.2 5.4 -6.3 4.42 -5.23 -2.41 -15.25 0.47 -0.55c2.61,-3.12 5.23,-6.28 7.84,-9.44l1.35 -1.63c-0.4,-2.38 -0.74,-4.23 -1.03,-5.79 -0.92,-4.98 -1.35,-7.36 -0.84,-9.73 0.47,-2.18 1.65,-3.98 3.91,-7.43 0.74,-1.13 1.6,-2.44 2.56,-3.96l-4.48 1.4 -9.26 2.83 -13.66 -8.15 -6.52 2.89c-2.64,1.16 -5.19,2.27 -7.63,3.32l-0.75 0.33 -13.8 -8.43c-2.29,0.98 -4.53,1.93 -6.71,2.85l-8.24 3.43 -7.6 -4.73 -6.2 -3.9 -6.63 2.72c-2.58,1.04 -5.11,2.06 -7.58,3.03l-0.66 0.27 -0.65 -0.34c-4.33,-2.23 -7.69,-3.97 -10.99,-5.69l-2.72 -1.41c-0.17,2.24 -0.31,4.58 -0.44,6.96 -0.63,10.87 -1.31,22.51 -6.12,31.68 -10.59,20.19 -12.38,33.23 -13.76,43.2 -0.92,6.71 -1.66,12.09 -4.68,17.44 -11.25,19.92 -13.38,32.8 -15.01,42.64 -1.09,6.63 -1.97,11.93 -5.16,17.19 -10.63,17.56 -13.37,27.57 -16.23,38.03 -2.95,10.81 -6.03,22.09 -17.75,42.31 2.55,-0.47 4.61,-0.9 6.31,-1.25 4.18,-0.88 6.37,-1.33 8.61,-0.92 2.49,0.47 4.53,1.9 8.83,4.91 1.42,1 3.1,2.19 5.19,3.61l7.31 -2.32 8.77 -2.81 0.64 0.42c2.35,1.57 4.57,3.04 6.72,4.45l6.12 4c5.14,-1.69 10.21,-3.42 15.27,-5.14l0.79 -0.27 7.4 4.76 6.15 3.89c4.27,-1.48 9.06,-3.19 13.85,-4.89l2.11 -0.75 8.5 4.2 5.46 2.67 -0.28 -4.3 -0.56 -7.84 0.65 -0.53c2.14,-1.75 4.51,-3.74 6.88,-5.73l2.21 -1.84 -2.49 -12.18 9.74 -8.26 -2.57 -12.22 0.72 -0.61c2.18,-1.87 4.36,-3.76 6.54,-5.64l2.39 -2.07 -2.65 -12.33 1.63 -1.26c5.99,-4.66 7.11,-5.53 12.22,-11.67l1.34 -1.61 5.47 7.86 7.28 -6.87 3.71 5.33 1.62 2.29 7.27 -6.92 5.36 7.58c2.5,-2.39 4.99,-4.78 7.48,-7.19l0.97 1.93c3.09,6.13 3.56,7.84 5.13,13.49l0.82 2.96 -2.18 1.98c-2.36,2.16 -4.72,4.31 -7.39,6.7 0.91,4.05 1.83,8.1 2.72,12.16l-5.5 4.92 -4.13 3.66 2.67 12.11 -0.71 0.62c-3.07,2.71 -6.04,5.3 -9.01,7.88l2.56 11.91 -0.5 0.59c-2.27,2.73 -4.32,5.17 -6.32,7.55 1.95,-0.56 3.58,-1.06 4.97,-1.49 4.05,-1.23 6.19,-1.89 8.43,-1.7 2.53,0.22 4.71,1.46 9.32,4.09 1.54,0.87 3.35,1.9 5.43,3.04l7.4 -3.01 8.76 -3.63c4.7,2.51 9.4,5 14.1,7.49l7.38 -3.15 8.76 -3.77 0.67 0.34c4.72,2.47 9.11,4.69 13.47,6.9 3.19,-1.41 5.6,-2.56 7.53,-3.48 4.08,-1.96 6.15,-2.95 8.49,-3.02 2.39,-0.08 4.59,0.81 9.04,2.61zm536.34 -0.47l3.13 -11.99c-1.61,0.85 -3.26,1.74 -4.95,2.65 -10.2,5.5 -21.85,11.79 -32.06,12.49 -21.87,1.51 -30.73,5.22 -39.78,9.01 -9.99,4.18 -20.21,8.47 -47.46,10.15 -0.11,2.65 -0.15,5.34 -0.19,8.05 -0.15,10.68 -0.32,21.85 -4.45,31.35 -8.89,20.48 -10.24,30.79 -11.65,41.51 -1.39,10.57 -2.82,21.53 -11.29,42.58l-0.96 2.4 -1.71 -1.94c-13.41,-15.3 -12.57,-22.59 -11.94,-28.14 0.36,-3.09 0.64,-5.53 -2.75,-8.88 -12.97,-12.83 -12.72,-16.39 -12.3,-22.22 0.29,-3.93 0.65,-9.02 -4.25,-20.11l-0.41 -0.92 5.19 -6 3.9 -4.54c-1.33,-3.47 -2.64,-6.95 -3.98,-10.42 2.09,-3.28 4.16,-6.58 6.23,-9.87l-3.91 1.67c-10.53,4.5 -22.5,9.62 -32.65,9.35 -22.04,-0.6 -31.06,2.23 -40.3,5.14 -10.2,3.2 -20.66,6.49 -48.22,5.55l-2.1 11.53 -2.37 12.86c-5.08,27.4 -12.88,47.8 -19.93,66.25 -5.75,15.05 -11.01,28.79 -13.84,43.88 -9.17,48.97 -13.03,58.35 -29.77,99.13l-2.63 6.42c28.17,-6.93 36.13,-6.44 44.79,-5.91 5.34,0.33 10.96,0.68 22.06,-0.79 11.09,-1.48 16.3,-3.43 21.32,-5.31 8.24,-3.1 16.02,-6.01 46.67,-6.47 0.12,-2.27 0.17,-4.57 0.22,-6.89 0.2,-9.32 0.41,-19.1 4.61,-27.1 9.91,-18.88 10.84,-26.92 11.86,-35.83 0.99,-8.6 2.08,-18 10.91,-38.03l0.67 -1.54 3.21 1.64c1.86,0.95 3.73,1.91 5.23,2.7l1.06 0.56 -2.67 12.81c3.47,1.61 6.94,3.22 10.41,4.81l-2.73 13.26c2.59,2.64 5.19,5.27 7.78,7.88 2.8,2.82 5.61,5.63 8.43,8.44l0.58 0.58 -0.13 0.8c-0.54,3.28 -1.04,5.67 -1.42,7.52 -0.56,2.67 -0.86,4.13 -0.67,5.31 0.23,1.43 1.27,2.98 3.56,6.41l2.59 3.9 -0.39 0.82c-1.79,3.68 -3.82,7.85 -6.01,12.32l-4.29 8.74c2.16,-0.82 4.4,-1.71 6.7,-2.62 10.76,-4.26 22.71,-9 32.68,-9.23 20.88,-0.51 32.36,-4.18 45.27,-8.3 11.95,-3.82 25.1,-8.02 47.83,-10.52l2.92 -23.54c3.02,-24.39 9.19,-45.62 14.78,-64.88 4.93,-16.97 9.42,-32.41 10.85,-47.03 4.69,-47.77 8.71,-63.14 18.72,-101.45zm-377.39 250.88l2.87 -4.22c-1.99,0.53 -4,1.08 -6.06,1.65 -12.35,3.38 -25.92,7.1 -37.63,5.9 -23.4,-2.41 -35.23,-0.6 -46.88,1.19 -12.81,1.96 -25.42,3.89 -52.54,0.31l-0.9 -0.12 -3.98 -9.22 9.99 -7.69 -3.42 -10.17 0.99 -0.68c5.72,-3.91 13.77,-7.87 21.89,-10.25 6.81,-2 13.71,-2.9 19.43,-1.77 18.51,3.65 26.32,2.07 35.42,0.24 9.07,-1.83 19.39,-3.91 42,-1.65 -0.15,-2.31 -0.32,-4.31 -0.45,-5.97 -0.38,-4.52 -0.56,-6.75 0.19,-8.93 0.73,-2.12 2.21,-3.74 5.12,-6.93 1.38,-1.5 3.09,-3.38 5.16,-5.77l-0.71 -4.08c-1.01,-5.81 -1.47,-8.42 -0.78,-10.97 0.57,-2.08 1.82,-3.78 4.08,-6.86 0.93,-1.27 2.04,-2.78 3.35,-4.66l-3.12 1.02c-9.55,3.12 -20.64,6.74 -29.3,5.26 -20.87,-3.56 -27.76,-1.52 -34.63,0.51 -7.54,2.22 -15.06,4.44 -38.84,0.05l-0.9 -0.17 -0.31 -0.85c-0.8,-2.18 -1.76,-4.85 -2.72,-7.52l-0.53 -1.49c3.31,-2.87 6.61,-5.75 9.91,-8.62l-3.18 -10.92 0.84 -0.67c21.15,-16.7 41.51,-14.23 59.07,-12.09 6.79,0.82 13.15,1.59 18.87,1.13 11.65,-0.93 17.23,-2.69 22.64,-4.39 8.82,-2.78 17.19,-5.42 48.99,-4.33 -0.19,-2.31 -0.37,-4.13 -0.53,-5.68 -0.48,-4.87 -0.71,-7.27 0,-9.57 0.69,-2.24 2.13,-3.98 4.96,-7.4 1.27,-1.54 2.86,-3.45 4.83,-5.97l-0.75 -4c-1.13,-5.99 -1.63,-8.68 -1.01,-11.31 0.51,-2.16 1.7,-3.95 3.86,-7.19 0.98,-1.47 2.17,-3.26 3.58,-5.51 -47.42,10.21 -60.59,10.18 -83.24,10.13 -11.62,-0.03 -25.75,-0.06 -48.5,1.31 -23.11,1.39 -36.8,3.28 -48.03,4.83 -21.46,2.96 -34.02,4.69 -85.44,-0.54l-2.95 11.23 -3.33 12.53c-7.25,27.15 -16.61,46.48 -25.04,63.91 -6.78,14 -12.96,26.75 -16.91,41.32 -12.92,47.61 -17.17,55.91 -36.89,94.45l-3.53 6.9c3.99,-0.11 8,-0.23 12.04,-0.36 4.87,-0.16 9.77,-0.34 14.71,-0.54 18.55,-0.74 41.57,0.39 63.67,1.47 25.41,1.24 49.61,2.43 64.21,0.62 53.21,-6.58 73.53,-6.9 124.28,-7.71l3.42 -0.05c-0.41,-4.92 -0.82,-9.84 -1.22,-14.76l5.94 -6.75 4.97 -5.67 -2.67 -13.74 5.64 -8.22zm-361.34 50.63c7.95,-1.25 15.21,-2.4 45.55,4.46l6.56 -22.07c7.14,-24 16.75,-43.22 25.39,-60.47 7.38,-14.75 14.04,-28.06 17.75,-41.63 12.47,-45.6 18.27,-58.21 34.21,-92.85l5.57 -12.14c-1.8,0.3 -3.62,0.63 -5.49,0.96 -10.8,1.96 -23.14,4.19 -32.52,1.55 -21.13,-5.94 -29.92,-5.22 -38.96,-4.48 -9.97,0.82 -20.24,1.66 -46.67,-5.89l-3.29 10.86 -3.77 12.34c-8.36,27.13 -18.44,45.82 -27.51,62.64 -7.23,13.4 -13.81,25.6 -18.31,39.9 -14.64,46.47 -19.1,54.4 -39.58,90.79l-4.46 7.93c27.83,-0.54 35.42,1.82 43.56,4.37 5.07,1.58 10.37,3.23 21.19,4.25 10.97,1.03 16.01,0.23 20.78,-0.52zm-88.35 -56.47l3.03 -3.29 -2.07 0.31c-7.66,1.19 -16.31,2.52 -22.66,-0.65 -16.57,-8.29 -20.75,-7.07 -24.92,-5.86 -4.88,1.43 -9.76,2.85 -28.53,-6.74l-1.21 -0.63 3.17 -9.53c7.68,-23.06 17.78,-40.11 26.17,-54.27 6.2,-10.48 11.46,-19.37 14.02,-27.82 11,-36.4 13.99,-41.62 27.62,-65.46 2.21,-3.86 4.69,-8.22 7.46,-13.13 -1.96,0.09 -4.02,0.22 -6.11,0.36 -10.65,0.68 -22.17,1.42 -31.46,-2.48 -19.72,-8.29 -28.77,-8.8 -38.1,-9.33 -10.25,-0.58 -20.85,-1.19 -45.38,-11.51l-3.72 10.44c-11.63,32.34 -23.89,52.55 -34.75,70.44 -7.99,13.19 -15.23,25.11 -20.83,39.68 -16.83,43.77 -22.03,52.02 -42.4,84.33l-6.79 10.78 8.67 1.25c3.9,0.55 7.62,1.07 11.08,1.55 18.23,2.49 37.76,8.07 55.12,13.03 15.95,4.55 30.07,8.58 39.4,9.15 42.51,2.58 49.45,4.31 81.45,12.3 4.25,1.06 8.94,2.23 13.76,3.41l0.2 -6.12 0.31 -8.82 0.54 -0.45c3.39,-2.81 6.73,-5.59 10.07,-8.38l1.37 -1.15 -0.29 -4.35c-0.21,-3.1 -0.43,-6.2 -0.63,-9.39l-0.04 -0.69 6.45 -6.98zm-305.6 -153.22c0.47,4.33 0.93,8.54 -14.93,21.15l-0.77 0.33 -6.77 1.01 -7.54 1.14 -6.4 -5.96 -5.3 -4.9 -7.19 1.04 -8.67 1.3 -5.37 -4.86 -5.47 -4.91 0.13 -0.84c0.21,-1.38 0.35,-2.73 0.48,-4.12 0.55,-5.54 1.13,-11.49 5.42,-15.05 10.96,-9.12 12.42,-16.49 13.6,-22.44 1.77,-8.93 2.98,-15.04 27.49,-19.1l0.74 -0.12 6.6 5.87 5.44 4.9 3.65 -0.54c4.15,-0.62 8.27,-1.24 11.33,-1.71l0.74 -0.11c3.64,3.29 7.28,6.57 10.91,9.88l-0.11 0.82c-0.16,1.17 -0.27,2.55 -0.39,3.97 -0.46,5.63 -0.96,11.78 -5.27,15.42 -13.08,11.04 -12.71,14.48 -12.35,17.83zm13.65 140.87c7.46,0.09 13.79,0.17 41.2,12.55l2.82 -7.84c9.99,-27.52 21.22,-44.5 30.59,-58.66 6.6,-9.98 12.27,-18.55 15.84,-28.35 13.51,-37.21 16.45,-41.61 31.85,-64.73 2.83,-4.25 6.09,-9.13 9.8,-14.81 -2.19,-1.55 -4.1,-2.86 -5.71,-3.96 -4.27,-2.92 -6.42,-4.4 -7.83,-6.6 -1.42,-2.23 -1.82,-4.81 -2.63,-10.02 -0.28,-1.86 -0.63,-4.1 -1.16,-7.12 -2.21,-1.43 -4.16,-2.66 -5.8,-3.68 -4.55,-2.85 -6.75,-4.21 -8.17,-6.37 -1.32,-1.99 -1.75,-4.29 -2.58,-8.73 -0.41,-2.19 -0.92,-4.93 -1.69,-8.45l-8.45 -0.98c-30.9,-3.65 -47.92,-10.74 -62.27,-16.7 -9.84,-4.1 -18.41,-7.66 -29.33,-9.16 -38.45,-5.31 -42.16,-6.87 -66.5,-17.15 -4.86,-2.05 -10.54,-4.46 -17.23,-7.2 -1.17,0.88 -2.38,1.86 -3.61,2.86 -5.46,4.44 -11.62,9.43 -18.2,9.28 -17.15,-0.39 -19.9,2 -23.05,4.73 -3.8,3.3 -8.12,7.05 -31.47,7.92l-2.91 8.35c-9.44,26.92 -20.47,44.35 -29.67,58.88 -6.57,10.39 -12.2,19.28 -15.56,29.04 -12.89,37.47 -16.42,43.32 -31.59,68.42 -2.43,4.02 -5.14,8.51 -7.71,12.8 1.99,0.02 4.04,-0.01 6.12,-0.03 10.38,-0.12 21.59,-0.25 30.42,4.07 19.31,9.45 27.78,10.3 36.61,11.17 9.63,0.96 19.68,1.96 43.58,13.4l0.59 -6.24 0.92 -9.22 6.6 -5.02 5.45 -4.09c0.06,-5.13 0.13,-10.26 0.21,-15.39l0.66 -0.47c1.67,-1.17 2.86,-2.02 3.89,-2.76 3.55,-2.53 5.3,-3.79 7.35,-4.64 2.02,-0.84 4.1,-1.2 8.2,-1.92 1.59,-0.27 3.44,-0.6 5.18,-0.92l0.77 -0.14c3.95,3.56 7.88,7.13 11.81,10.71l7.08 -1.14 8.6 -1.34 2.24 2.06c2.62,2.4 5.25,4.81 7.97,7.27l0.54 0.49 -0.01 0.73c-0.07,3.13 -0.09,6.24 -0.12,9.35l-0.03 3.74 -12.23 8.76 -0.05 6.84 -0.01 8.32 -6.57 6.39 -3.7 3.62c28.46,3.5 33.9,6.92 40.18,10.88 3.82,2.4 7.96,5.01 18.47,7.99 10.87,3.09 15.8,3.15 20.3,3.21z"/>
   <polygon class="fil1" points="393.74,610.08 982.97,501.69 1091.36,1090.92 502.13,1199.31 "/>
   <polygon class="fil2 str0" points="447.34,647.38 946.16,555.63 1020.47,959.64 521.65,1051.38 "/>
   <path class="fil0" d="M522.54 685.92c-0.19,0.03 -0.33,0.23 -0.26,0.6l22.44 121.98c0.06,0.36 0.26,0.51 0.45,0.47l22.99 -4.22c0.36,-0.07 0.32,-0.26 0.25,-0.61l-8.94 -48.68c0.29,-0.44 0.44,-0.65 0.61,-0.68l32.34 -5.94c5.61,-7.9 9.56,-13.66 11.69,-17.2l-8.13 -44.18c-6.62,-4.73 -12.36,-8.69 -17.22,-11.89l-56.22 10.35zm27.8 19.94c-0.03,-0.16 0.12,-0.38 0.47,-0.45l22.82 -4.2c0.18,-0.03 0.36,-0.07 0.43,0.3l4.59 24.97c-0.11,0.39 -0.44,0.64 -0.62,0.68l-21.73 3.99c-0.73,0.13 -1.11,0.02 -1.37,-0.31l-4.59 -24.98zm46.44 -33.6c-0.19,0.04 -0.33,0.24 -0.26,0.61l22.44 121.97c0.06,0.35 0.27,0.5 0.46,0.48l22.81 -4.21c0.36,-0.05 0.32,-0.24 0.26,-0.6l-8.95 -48.68c0.29,-0.44 0.44,-0.63 0.61,-0.67l21.92 -4.03c0.89,-0.16 1.32,0.13 1.49,1.01l8.82 47.98c0.07,0.36 0.1,0.53 0.45,0.48l22.82 -4.2c0.18,-0.03 0.33,-0.26 0.26,-0.6l-22.43 -121.99c-0.07,-0.36 -0.25,-0.33 -0.46,-0.47l-22.83 4.2c-0.16,0.03 -0.31,0.23 -0.25,0.6l8.83 47.97c0.16,0.88 -0.14,1.32 -1.04,1.49l-21.38 3.92c-0.71,0.14 -1.1,0.03 -1.34,-0.3l-8.95 -48.68c-0.07,-0.37 -0.07,-0.37 -0.47,-0.47l-22.81 4.19zm88.26 -16.23c-4.73,6.62 -8.69,12.37 -11.88,17.22l17.28 93.96c6.62,4.72 12.37,8.68 17.23,11.87l42.03 -7.72c4.69,-6.82 8.69,-12.39 11.87,-17.23l-17.28 -93.96c-6.63,-4.73 -12.36,-8.68 -17.23,-11.87l-42.02 7.73zm13.61 22.56c-0.03,-0.17 0.11,-0.4 0.3,-0.42l22.81 -4.2c0.36,-0.06 0.36,-0.06 0.42,0.29l13.72 74.56c0.02,0.18 0.06,0.35 -0.29,0.41l-23 4.23 -0.35 -0.86 -13.61 -74.01zm46.43 -33.61c-0.18,0.04 -0.33,0.25 -0.25,0.61l4.22 22.99c0.04,0.18 0.25,0.33 0.42,0.29l22.83 -4.19c0.36,-0.07 0.36,-0.07 0.43,0.28l18.07 98.28c0.07,0.35 0.26,0.5 0.64,0.43l22.98 -4.22c0.19,-0.03 0.33,-0.25 0.27,-0.6l-18.08 -98.28c-0.04,-0.18 -0.06,-0.35 0.29,-0.42l22.81 -4.2c0.19,-0.03 0.34,-0.25 0.3,-0.41l-4.22 -23c-0.08,-0.37 -0.26,-0.34 -0.47,-0.48l-70.24 12.92zm88.26 -16.23c-4.73,6.62 -8.68,12.36 -11.87,17.22l17.28 93.96c6.63,4.71 12.37,8.67 17.23,11.87l42.02 -7.73c4.69,-6.81 8.7,-12.38 11.88,-17.23l-17.29 -93.95c-6.62,-4.72 -12.36,-8.68 -17.22,-11.87l-42.03 7.73zm13.62 22.56c-0.04,-0.18 0.12,-0.39 0.3,-0.42l22.81 -4.2c0.35,-0.07 0.35,-0.07 0.42,0.29l13.71 74.55c0.04,0.19 0.07,0.36 -0.29,0.42l-22.99 4.23 -0.35 -0.85 -13.61 -74.02zm-291.39 214.25c-0.18,0.03 -0.32,0.24 -0.25,0.6l22.44 121.99c0.07,0.35 0.26,0.5 0.45,0.46l56.22 -10.34c4.7,-6.8 8.69,-12.37 11.87,-17.22l-6.67 -36.29 -12.14 -8.55 -0.11 -0.54 8.32 -12.29 -6.67 -36.28c-6.63,-4.73 -12.36,-8.68 -17.23,-11.88l-56.23 10.34zm27.81 19.95c-0.02,-0.17 0.12,-0.39 0.31,-0.43l22.81 -4.19c0.36,-0.06 0.36,-0.06 0.42,0.29l4.6 24.98c0.06,0.36 -0.26,0.6 -0.98,0.73l-21.93 4.04c-0.38,-0.12 -0.6,-0.26 -0.63,-0.44l-4.6 -24.98zm9.12 49.59c0.12,-0.4 0.27,-0.61 0.45,-0.63l21.91 -4.03c0.72,-0.14 1.12,-0.04 1.18,0.33l4.6 24.97c0.02,0.19 0.06,0.35 -0.29,0.42l-22.82 4.19c-0.18,0.04 -0.4,-0.1 -0.44,-0.29l-4.59 -24.96zm51.52 -85.81c-4.73,6.63 -8.69,12.37 -11.88,17.24l17.29 93.94c6.61,4.72 12.36,8.69 17.23,11.88l42.02 -7.73c4.69,-6.81 8.69,-12.38 11.87,-17.23l-17.28 -93.95c-6.63,-4.73 -12.36,-8.69 -17.23,-11.88l-42.02 7.73zm13.61 22.56c-0.03,-0.16 0.11,-0.38 0.3,-0.42l22.81 -4.19c0.36,-0.07 0.36,-0.07 0.42,0.29l13.72 74.56c0.03,0.17 0.06,0.35 -0.29,0.41l-22.99 4.23 -0.35 -0.86 -13.62 -74.02zm60.63 -36.21c-4.73,6.62 -8.68,12.36 -11.87,17.22l17.28 93.96c6.63,4.71 12.36,8.68 17.23,11.87l42.02 -7.73c4.7,-6.81 8.69,-12.38 11.87,-17.23l-17.27 -93.95c-6.63,-4.72 -12.37,-8.68 -17.24,-11.87l-42.02 7.73zm13.61 22.56c-0.02,-0.18 0.13,-0.39 0.3,-0.42l22.82 -4.2c0.36,-0.07 0.36,-0.07 0.43,0.29l13.71 74.55c0.03,0.19 0.06,0.36 -0.29,0.42l-23 4.23 -0.35 -0.85 -13.62 -74.02zm46.44 -33.6c-0.18,0.02 -0.32,0.23 -0.26,0.59l4.23 23c0.03,0.17 0.24,0.32 0.43,0.29l22.81 -4.19c0.36,-0.07 0.36,-0.07 0.43,0.29l18.07 98.26c0.07,0.36 0.28,0.52 0.64,0.45l22.99 -4.23c0.18,-0.04 0.34,-0.26 0.26,-0.61l-18.07 -98.28c-0.03,-0.16 -0.06,-0.35 0.29,-0.42l22.81 -4.19c0.18,-0.03 0.33,-0.24 0.3,-0.42l-4.23 -23c-0.07,-0.36 -0.24,-0.33 -0.47,-0.46l-70.23 12.92zm74.07 -13.63c-0.19,0.03 -0.33,0.24 -0.26,0.6l22.44 121.98c0.06,0.36 0.27,0.51 0.45,0.47l22.81 -4.19c0.36,-0.07 0.33,-0.26 0.27,-0.61l-8.96 -48.68c0.29,-0.43 0.44,-0.64 0.62,-0.68l21.91 -4.03c0.9,-0.16 1.33,0.13 1.49,1.03l8.82 47.97c0.07,0.35 0.11,0.54 0.46,0.47l22.81 -4.2c0.18,-0.03 0.34,-0.24 0.26,-0.6l-22.42 -121.97c-0.07,-0.38 -0.26,-0.34 -0.47,-0.48l-22.82 4.19c-0.16,0.04 -0.31,0.25 -0.26,0.61l8.84 47.96c0.16,0.9 -0.14,1.33 -1.04,1.49l-21.38 3.94c-0.71,0.13 -1.11,0.01 -1.35,-0.32l-8.95 -48.68c-0.07,-0.36 -0.07,-0.36 -0.46,-0.47l-22.81 4.2z"/>
  </g>
 </g>
</svg>
