<?xml version="1.0" encoding="utf-8"?>
<svg fill="current" stroke="current" viewBox="401.286 170.854 43.94 45.502" xmlns="http://www.w3.org/2000/svg">
  <g transform="matrix(1, 0, 0, 1, -536.478088, -346.2146)">
    <path d="M978.84,562.57c-0.78-0.24-1.32-0.79-1.87-1.36c-3.31-3.45-6.63-6.89-9.94-10.34c-0.11-0.12-0.22-0.24-0.34-0.37 c-4.93,3.26-10.23,4.18-15.89,2.5c-4.19-1.25-7.52-3.77-9.94-7.41c-5.23-7.87-3.7-18.2,3.58-24.26c6.93-5.76,16.69-5.62,23.48,0.05 c2.52,2.1,4.34,4.71,5.48,7.79c1.13,3.06,1.39,6.22,0.83,9.44c-0.56,3.23-1.92,6.1-4.03,8.64c0.22,0.23,0.42,0.45,0.63,0.66 c3.35,3.48,6.69,6.95,10.04,10.43c1.04,1.08,1.13,2.52,0.14,3.48c-0.34,0.33-0.85,0.5-1.28,0.75 C979.43,562.57,979.14,562.57,978.84,562.57z M956.16,521.88c-7.46-0.01-13.55,6.06-13.58,13.55c-0.03,7.47,6.12,13.62,13.57,13.59 c7.49-0.03,13.55-6.09,13.55-13.56C969.71,527.99,963.63,521.9,956.16,521.88z"/>
  </g>
</svg>